<?xml version="1.0" standalone="no"?>
<!DOCTYPE svg PUBLIC "-//W3C//DTD SVG 20010904//EN"
 "http://www.w3.org/TR/2001/REC-SVG-20010904/DTD/svg10.dtd">
<svg version="1.0" xmlns="http://www.w3.org/2000/svg"
 width="500.000000pt" height="500.000000pt" viewBox="0 0 500.000000 500.000000"
 preserveAspectRatio="xMidYMid meet">
<metadata>
Created by potrace 1.14, written by Peter Selinger 2001-2017
</metadata>
<g transform="translate(0.000000,500.000000) scale(0.100000,-0.100000)"
fill="#000000" stroke="none">
<path d="M0 2500 l0 -2500 2500 0 2500 0 0 2500 0 2500 -2500 0 -2500 0 0
-2500z m2720 1039 c292 -75 542 -325 622 -624 30 -115 30 -328 0 -439 -72
-262 -281 -497 -521 -587 -126 -47 -170 -54 -331 -53 -142 0 -162 3 -240 28
-47 16 -107 40 -135 54 -224 112 -391 318 -457 564 -29 110 -32 329 -4 428 97
350 388 607 736 650 89 11 240 2 330 -21z"/>
<path d="M2297 3529 c-261 -64 -488 -259 -591 -508 -66 -158 -79 -352 -37
-526 72 -297 295 -530 596 -621 80 -24 106 -27 235 -27 129 0 155 3 235 27
294 89 518 319 596 611 27 100 30 284 6 391 -70 321 -321 578 -639 654 -111
27 -291 26 -401 -1z m118 -330 c145 -41 181 -262 56 -346 -47 -32 -94 -43
-183 -43 l-78 0 0 200 0 200 83 0 c45 0 100 -5 122 -11z m373 -163 c-3 -168
-4 -175 -27 -200 -60 -63 -181 -29 -181 51 0 31 28 30 40 -2 20 -52 96 -58
118 -10 8 16 12 84 12 180 0 150 1 155 21 155 20 0 20 -4 17 -174z m-487 -388
c56 -16 114 -70 135 -123 58 -154 -80 -312 -242 -276 -96 22 -164 105 -164
202 0 61 19 104 64 148 56 55 131 72 207 49z m376 -157 l108 -159 3 159 c2
151 4 159 22 159 19 0 20 -8 20 -200 0 -259 2 -259 -151 -30 -63 93 -117 169
-121 170 -5 0 -8 -76 -8 -170 0 -163 -1 -170 -20 -170 -19 0 -20 7 -20 200 l0
200 29 0 c27 0 40 -14 138 -159z m283 -41 c0 -193 -1 -200 -20 -200 -19 0 -20
7 -20 200 0 193 1 200 20 200 19 0 20 -7 20 -200z"/>
<path d="M2250 3010 l0 -160 68 0 c75 0 124 19 154 61 27 37 37 92 26 141 -18
81 -75 118 -183 118 l-65 0 0 -160z"/>
<path d="M2159 2597 c-117 -62 -117 -232 1 -294 75 -40 149 -26 207 40 74 85
42 219 -64 263 -47 20 -94 17 -144 -9z"/>
</g>
</svg>
