<svg width="128" height="128" viewBox="0 0 128 128" fill="none" xmlns="http://www.w3.org/2000/svg"><path fill-rule="evenodd" clip-rule="evenodd" d="M128 64c0 35.346-28.654 64-64 64-35.346 0-64-28.654-64-64C0 28.654 28.654 0 64 0c35.346 0 64 28.654 64 64ZM54.371 51.548s-.332-.498-.664-.498-.577.108-.662.498c-.004.66.14 1.325.498 1.992.892 1.677 2.321 3.033 4.15 4.15 2.822 1.807 6.45 2.362 10.46 2.325 2.86-.017 6.143-.416 9.628-.997 4.714-1.112 8.96-3 12.95-5.313 4.343-2.801 7.986-6.56 10.79-11.455.175-.34.35-.653.526-.966.951-1.694 1.901-3.387 2.628-9.327 0-2.11-.381-4.272-1.327-6.475-.985-2.84-3.383-4.926-6.475-6.64 0 0-6.142-3.32-14.444-3.32-8.301 0-14.776 2.158-14.776 2.158-5.452 1.552-11.123 3.984-16.933 6.972-3.932 1.95-7.73 4.407-11.456 7.14-6.077 4.185-10.418 9.605-13.944 15.605-1.204 2.447-1.913 4.984-1.992 7.637.263 3.686 1.808 7.118 4.648 10.294a50.831 50.831 0 0 0 10.625 9.296l7.305 5.146c.903.616 1.772 1.261 2.555 1.978-1.093.56-2.311 1.221-3.718 2.007-4.81 2.24-9.296 5.834-13.615 10.128-1.321 1.664-2.374 3.476-2.988 5.645-1.424 5.029-.46 8.928 2.988 11.621 1.191.624 3.06.996 5.479 1.162 6.597-.035 11.464-2.701 15.273-6.973 3.233-3.493 5.286-8.14 5.645-14.444.146-2.633-.373-5.144-1.542-7.532 1.941-.6 3.987-.954 6.192-.936 7.953.695 15.32 2.097 16.601 10.791-.204 2.2-1.257 4.17-3.32 5.645 0 0-1.66.83-1.163 1.327.498.498 1.495 0 1.495 0 2.995-1.134 4.934-3.292 5.645-6.64.628-3.604-.987-7.073-3.984-10.458-2.394-2.373-5.385-4.55-12.783-4.98-2.366.01-4.539.094-6.31.331-1.84.291-3.34.619-4.862 1.12-1.325-1.594-2.97-3.13-4.933-4.606l-7.471-5.81c-5.316-4.216-8.221-8.672-7.97-13.447.04-7.224 5.568-15.227 24.073-25.07 8.562-4.658 17.195-7.068 25.9-7.304 7.623.236 13.84 1.846 14.608 8.799-.287 5.87-3.759 10.691-8.964 14.941-6.724 5.192-14.46 8.317-23.575 8.634-4.71-.115-8.452-1.334-10.79-4.151Zm-3.231 33.84c-1.893.976-3.722 2.1-5.55 3.224-.338.208-.675.415-1.013.621-3.828 2.675-6.557 5.731-8.301 9.131-.679 1.275-1.023 2.675-1.162 4.151-.009 2.526 1.186 3.285 2.988 3.154 3.547.217 6.9-1.95 10.128-5.645 2.129-2.835 3.548-6.003 3.653-9.796.117-1.918-.171-3.498-.743-4.84Z" fill="#F0E3CA"/></svg>
